<svg width="47" height="37" viewBox="0 0 47 37" fill="none" xmlns="http://www.w3.org/2000/svg">
<path d="M43.9716 3.00683C48.0095 7.01594 48.0095 13.5158 43.9716 17.5249L29.3491 32.0431L26.4245 29.1395L41.0234 14.6447L41.0471 14.6214C43.4698 12.2158 43.4698 8.31572 41.0471 5.91041C38.6244 3.50484 34.6963 3.50484 32.2735 5.91041L17.651 20.4285L14.7266 17.5249L29.3491 3.00683C33.387 -1.00228 39.9336 -1.00228 43.9716 3.00683Z" fill="#F2F2F2"/>
<path d="M14.7265 5.91041L17.651 3.00683C13.6131 -1.00228 7.06638 -1.00228 3.02845 3.00683C-1.00948 7.01594 -1.00948 13.5158 3.02845 17.5249L17.6509 32.0431L20.5755 29.1395L5.95302 14.6214C3.53029 12.2158 3.53029 8.31597 5.95302 5.91041C8.37575 3.50509 12.3037 3.50509 14.7265 5.91041Z" fill="#F2F2F2"/>
<path d="M38.1226 11.7178C37.315 12.5196 36.0056 12.5196 35.1981 11.7178C34.3905 10.9159 34.3905 9.61595 35.1981 8.81413C36.0056 8.01232 37.315 8.01232 38.1226 8.81413C38.9301 9.61595 38.9301 10.9159 38.1226 11.7178Z" fill="#F2F2F2"/>
<path d="M35.1981 8.81413L38.1226 11.7178L20.5755 29.1395L17.6511 26.236L35.1981 8.81413Z" fill="#F2F2F2"/>
<path d="M11.802 8.81407C12.6096 9.61589 12.6096 10.9159 11.802 11.7177C10.9944 12.5195 9.68507 12.5195 8.87749 11.7177C8.06991 10.9159 8.06991 9.61589 8.87749 8.81407C9.68507 8.01226 10.9944 8.01226 11.802 8.81407Z" fill="#F2F2F2"/>
<path d="M16.1889 7.36222C15.3813 6.56041 15.3813 5.26041 16.1889 4.45859C16.9964 3.65677 18.3058 3.65677 19.1134 4.45859C19.9209 5.26041 19.9209 6.56041 19.1134 7.36222C18.3058 8.16404 16.9964 8.16404 16.1889 7.36222Z" fill="#F2F2F2"/>
<path d="M19.1134 4.45859L16.1889 7.36222L14.7265 5.91041L17.651 3.00683L19.1134 4.45859Z" fill="#F2F2F2"/>
<path d="M22.0378 33.495C22.8454 32.6932 24.1547 32.6932 24.9623 33.495C25.7699 34.2968 25.7699 35.5968 24.9623 36.3986C24.1547 37.2005 22.8454 37.2005 22.0378 36.3986C21.2302 35.5968 21.2302 34.2968 22.0378 33.495Z" fill="#F2F2F2"/>
<path d="M24.9623 36.3986L22.0378 33.495L26.4245 29.1395L29.3491 32.0431L24.9623 36.3986Z" fill="#F2F2F2"/>
<path d="M14.7266 17.5249L17.651 14.6214L11.802 8.81407C12.6096 9.61589 12.6096 10.9159 11.802 11.7177C10.9944 12.5195 9.68507 12.5195 8.87749 11.7177L14.7266 17.5249Z" fill="#F2F2F2"/>
</svg>
